<mxfile host="Electron" modified="2025-07-22T21:04:29.479Z" agent="Mozilla/5.0 (X11; Linux x86_64) AppleWebKit/537.36 (KHTML, like Gecko) draw.io/24.4.8 Chrome/124.0.6367.207 Electron/30.0.6 Safari/537.36" etag="PrkOls7M4rU1n7qFr8VD" version="24.4.8" type="device">
  <diagram name="Page-1" id="D1_wl4uo9qu-VZ6suMuQ">
    <mxGraphModel dx="1728" dy="-1209" grid="1" gridSize="10" guides="1" tooltips="1" connect="1" arrows="1" fold="1" page="1" pageScale="1" pageWidth="850" pageHeight="1100" math="0" shadow="0">
      <root>
        <mxCell id="0" />
        <mxCell id="1" parent="0" />
        <mxCell id="YvmfC7UfU6zEBnSFnw1T-1" style="edgeStyle=orthogonalEdgeStyle;rounded=0;orthogonalLoop=1;jettySize=auto;html=1;exitX=0.5;exitY=0;exitDx=0;exitDy=0;entryX=0.5;entryY=1;entryDx=0;entryDy=0;curved=1;" parent="1" source="YvmfC7UfU6zEBnSFnw1T-6" target="YvmfC7UfU6zEBnSFnw1T-8" edge="1">
          <mxGeometry relative="1" as="geometry" />
        </mxCell>
        <mxCell id="YvmfC7UfU6zEBnSFnw1T-6" value="«Module»&lt;br&gt;LandingPage" style="rounded=0;whiteSpace=wrap;html=1;fillColor=#d5e8d4;strokeColor=#82b366;" parent="1" vertex="1">
          <mxGeometry x="1640" y="3460" width="120" height="60" as="geometry" />
        </mxCell>
        <mxCell id="YvmfC7UfU6zEBnSFnw1T-7" style="edgeStyle=orthogonalEdgeStyle;rounded=0;orthogonalLoop=1;jettySize=auto;html=1;exitX=0.5;exitY=0;exitDx=0;exitDy=0;entryX=0.5;entryY=1;entryDx=0;entryDy=0;curved=1;" parent="1" source="YvmfC7UfU6zEBnSFnw1T-8" target="YvmfC7UfU6zEBnSFnw1T-48" edge="1">
          <mxGeometry relative="1" as="geometry" />
        </mxCell>
        <mxCell id="YvmfC7UfU6zEBnSFnw1T-79" value="" style="edgeStyle=orthogonalEdgeStyle;rounded=0;orthogonalLoop=1;jettySize=auto;html=1;exitX=0;exitY=0.5;exitDx=0;exitDy=0;entryX=0.5;entryY=1;entryDx=0;entryDy=0;dashed=1;elbow=vertical;curved=1;" parent="1" source="YvmfC7UfU6zEBnSFnw1T-8" target="YvmfC7UfU6zEBnSFnw1T-43" edge="1">
          <mxGeometry relative="1" as="geometry" />
        </mxCell>
        <mxCell id="YvmfC7UfU6zEBnSFnw1T-8" value="«Module»&lt;br&gt;Recommendations" style="rounded=0;whiteSpace=wrap;html=1;fillColor=#dae8fc;strokeColor=#6c8ebf;" parent="1" vertex="1">
          <mxGeometry x="1640" y="3340" width="120" height="60" as="geometry" />
        </mxCell>
        <mxCell id="YvmfC7UfU6zEBnSFnw1T-9" value="implements interface" style="edgeStyle=orthogonalEdgeStyle;rounded=0;orthogonalLoop=1;jettySize=auto;html=1;exitX=0.5;exitY=0;exitDx=0;exitDy=0;entryX=0.5;entryY=1;entryDx=0;entryDy=0;curved=1;" parent="1" source="YvmfC7UfU6zEBnSFnw1T-10" target="YvmfC7UfU6zEBnSFnw1T-48" edge="1">
          <mxGeometry relative="1" as="geometry" />
        </mxCell>
        <mxCell id="YvmfC7UfU6zEBnSFnw1T-10" value="«Module»&lt;br&gt;Horses" style="rounded=0;whiteSpace=wrap;html=1;fillColor=#e1d5e7;strokeColor=#9673a6;" parent="1" vertex="1">
          <mxGeometry x="1840" y="3260" width="120" height="60" as="geometry" />
        </mxCell>
        <mxCell id="YvmfC7UfU6zEBnSFnw1T-42" value="implements interface" style="edgeStyle=orthogonalEdgeStyle;rounded=0;orthogonalLoop=1;jettySize=auto;html=1;exitX=0.5;exitY=0;exitDx=0;exitDy=0;entryX=0.5;entryY=1;entryDx=0;entryDy=0;curved=1;" parent="1" source="YvmfC7UfU6zEBnSFnw1T-43" target="YvmfC7UfU6zEBnSFnw1T-48" edge="1">
          <mxGeometry relative="1" as="geometry" />
        </mxCell>
        <mxCell id="YvmfC7UfU6zEBnSFnw1T-43" value="«Module»&lt;br&gt;Events" style="rounded=0;whiteSpace=wrap;html=1;fillColor=#e1d5e7;strokeColor=#9673a6;" parent="1" vertex="1">
          <mxGeometry x="1440" y="3260" width="120" height="60" as="geometry" />
        </mxCell>
        <mxCell id="YvmfC7UfU6zEBnSFnw1T-48" value="«Module»&lt;br&gt;Recommendation&lt;br&gt;Contracts" style="rounded=0;whiteSpace=wrap;html=1;fillColor=#dae8fc;strokeColor=#6c8ebf;" parent="1" vertex="1">
          <mxGeometry x="1640" y="3140" width="120" height="60" as="geometry" />
        </mxCell>
        <mxCell id="YvmfC7UfU6zEBnSFnw1T-65" style="edgeStyle=orthogonalEdgeStyle;rounded=0;orthogonalLoop=1;jettySize=auto;html=1;exitX=0.5;exitY=0;exitDx=0;exitDy=0;entryX=0.5;entryY=1;entryDx=0;entryDy=0;curved=1;" parent="1" source="YvmfC7UfU6zEBnSFnw1T-52" target="YvmfC7UfU6zEBnSFnw1T-59" edge="1">
          <mxGeometry relative="1" as="geometry" />
        </mxCell>
        <mxCell id="YvmfC7UfU6zEBnSFnw1T-66" style="edgeStyle=orthogonalEdgeStyle;rounded=0;orthogonalLoop=1;jettySize=auto;html=1;exitX=0.5;exitY=0;exitDx=0;exitDy=0;entryX=0.5;entryY=1;entryDx=0;entryDy=0;curved=1;" parent="1" source="YvmfC7UfU6zEBnSFnw1T-52" target="YvmfC7UfU6zEBnSFnw1T-60" edge="1">
          <mxGeometry relative="1" as="geometry" />
        </mxCell>
        <mxCell id="YvmfC7UfU6zEBnSFnw1T-52" value="«Module»&lt;br&gt;LandingPage" style="rounded=0;whiteSpace=wrap;html=1;fillColor=#d5e8d4;strokeColor=#82b366;" parent="1" vertex="1">
          <mxGeometry x="2280" y="3460" width="120" height="60" as="geometry" />
        </mxCell>
        <mxCell id="YvmfC7UfU6zEBnSFnw1T-54" value="«Module»&lt;br&gt;Recommendations" style="rounded=0;whiteSpace=wrap;html=1;fillColor=#dae8fc;strokeColor=#6c8ebf;" parent="1" vertex="1">
          <mxGeometry x="2280" y="3140" width="120" height="60" as="geometry" />
        </mxCell>
        <mxCell id="YvmfC7UfU6zEBnSFnw1T-56" value="«Module»&lt;br&gt;Horses" style="rounded=0;whiteSpace=wrap;html=1;fillColor=#e1d5e7;strokeColor=#9673a6;" parent="1" vertex="1">
          <mxGeometry x="2480" y="3220" width="120" height="60" as="geometry" />
        </mxCell>
        <mxCell id="YvmfC7UfU6zEBnSFnw1T-58" value="«Module»&lt;br&gt;Events" style="rounded=0;whiteSpace=wrap;html=1;fillColor=#e1d5e7;strokeColor=#9673a6;" parent="1" vertex="1">
          <mxGeometry x="2080" y="3220" width="120" height="60" as="geometry" />
        </mxCell>
        <mxCell id="YvmfC7UfU6zEBnSFnw1T-61" style="edgeStyle=orthogonalEdgeStyle;rounded=0;orthogonalLoop=1;jettySize=auto;html=1;exitX=0.5;exitY=0;exitDx=0;exitDy=0;curved=1;" parent="1" source="YvmfC7UfU6zEBnSFnw1T-59" target="YvmfC7UfU6zEBnSFnw1T-58" edge="1">
          <mxGeometry relative="1" as="geometry" />
        </mxCell>
        <mxCell id="YvmfC7UfU6zEBnSFnw1T-63" style="edgeStyle=orthogonalEdgeStyle;rounded=0;orthogonalLoop=1;jettySize=auto;html=1;exitX=0.5;exitY=0;exitDx=0;exitDy=0;curved=1;" parent="1" source="YvmfC7UfU6zEBnSFnw1T-59" target="YvmfC7UfU6zEBnSFnw1T-54" edge="1">
          <mxGeometry relative="1" as="geometry" />
        </mxCell>
        <mxCell id="YvmfC7UfU6zEBnSFnw1T-59" value="«Module»&lt;br&gt;Horse&lt;br&gt;Recommendations" style="rounded=0;whiteSpace=wrap;html=1;fillColor=#dae8fc;strokeColor=#6c8ebf;" parent="1" vertex="1">
          <mxGeometry x="2180" y="3340" width="120" height="60" as="geometry" />
        </mxCell>
        <mxCell id="YvmfC7UfU6zEBnSFnw1T-62" style="edgeStyle=orthogonalEdgeStyle;rounded=0;orthogonalLoop=1;jettySize=auto;html=1;exitX=0.5;exitY=0;exitDx=0;exitDy=0;entryX=0.5;entryY=1;entryDx=0;entryDy=0;curved=1;" parent="1" source="YvmfC7UfU6zEBnSFnw1T-60" target="YvmfC7UfU6zEBnSFnw1T-56" edge="1">
          <mxGeometry relative="1" as="geometry" />
        </mxCell>
        <mxCell id="YvmfC7UfU6zEBnSFnw1T-64" style="edgeStyle=orthogonalEdgeStyle;rounded=0;orthogonalLoop=1;jettySize=auto;html=1;exitX=0.5;exitY=0;exitDx=0;exitDy=0;entryX=0.5;entryY=1;entryDx=0;entryDy=0;curved=1;" parent="1" source="YvmfC7UfU6zEBnSFnw1T-60" target="YvmfC7UfU6zEBnSFnw1T-54" edge="1">
          <mxGeometry relative="1" as="geometry">
            <mxPoint x="2370" y="3130" as="targetPoint" />
          </mxGeometry>
        </mxCell>
        <mxCell id="YvmfC7UfU6zEBnSFnw1T-60" value="«Module»&lt;br&gt;Horse&lt;br&gt;Recommendations" style="rounded=0;whiteSpace=wrap;html=1;fillColor=#dae8fc;strokeColor=#6c8ebf;" parent="1" vertex="1">
          <mxGeometry x="2380" y="3340" width="120" height="60" as="geometry" />
        </mxCell>
        <mxCell id="YvmfC7UfU6zEBnSFnw1T-68" style="edgeStyle=orthogonalEdgeStyle;rounded=0;orthogonalLoop=1;jettySize=auto;html=1;exitX=0.5;exitY=0;exitDx=0;exitDy=0;entryX=0.5;entryY=1;entryDx=0;entryDy=0;curved=1;" parent="1" source="YvmfC7UfU6zEBnSFnw1T-69" target="YvmfC7UfU6zEBnSFnw1T-78" edge="1">
          <mxGeometry relative="1" as="geometry" />
        </mxCell>
        <mxCell id="YvmfC7UfU6zEBnSFnw1T-69" value="«Module»&lt;br&gt;LandingPage" style="rounded=0;whiteSpace=wrap;html=1;fillColor=#d5e8d4;strokeColor=#82b366;" parent="1" vertex="1">
          <mxGeometry x="2920" y="3460" width="120" height="60" as="geometry" />
        </mxCell>
        <mxCell id="YvmfC7UfU6zEBnSFnw1T-70" value="«Module»&lt;br&gt;Recommendations" style="rounded=0;whiteSpace=wrap;html=1;fillColor=#dae8fc;strokeColor=#6c8ebf;" parent="1" vertex="1">
          <mxGeometry x="2920" y="3140" width="120" height="60" as="geometry" />
        </mxCell>
        <mxCell id="YvmfC7UfU6zEBnSFnw1T-71" value="«Module»&lt;br&gt;Horses" style="rounded=0;whiteSpace=wrap;html=1;fillColor=#e1d5e7;strokeColor=#9673a6;" parent="1" vertex="1">
          <mxGeometry x="3080" y="3220" width="120" height="60" as="geometry" />
        </mxCell>
        <mxCell id="YvmfC7UfU6zEBnSFnw1T-72" value="«Module»&lt;br&gt;«LegacyAdapter»&lt;br&gt;Events" style="rounded=0;whiteSpace=wrap;html=1;fillColor=#e1d5e7;strokeColor=#9673a6;" parent="1" vertex="1">
          <mxGeometry x="2760" y="3220" width="120" height="60" as="geometry" />
        </mxCell>
        <mxCell id="YvmfC7UfU6zEBnSFnw1T-73" style="edgeStyle=orthogonalEdgeStyle;rounded=0;orthogonalLoop=1;jettySize=auto;html=1;exitX=0.5;exitY=0;exitDx=0;exitDy=0;curved=1;" parent="1" source="YvmfC7UfU6zEBnSFnw1T-78" target="YvmfC7UfU6zEBnSFnw1T-72" edge="1">
          <mxGeometry relative="1" as="geometry">
            <mxPoint x="2879.9999999999995" y="3370" as="sourcePoint" />
          </mxGeometry>
        </mxCell>
        <mxCell id="YvmfC7UfU6zEBnSFnw1T-76" style="edgeStyle=orthogonalEdgeStyle;rounded=0;orthogonalLoop=1;jettySize=auto;html=1;exitX=0.5;exitY=0;exitDx=0;exitDy=0;entryX=0.5;entryY=1;entryDx=0;entryDy=0;curved=1;" parent="1" source="YvmfC7UfU6zEBnSFnw1T-78" target="YvmfC7UfU6zEBnSFnw1T-71" edge="1">
          <mxGeometry relative="1" as="geometry">
            <mxPoint x="3159.9999999999995" y="3265" as="targetPoint" />
          </mxGeometry>
        </mxCell>
        <mxCell id="YvmfC7UfU6zEBnSFnw1T-77" style="edgeStyle=orthogonalEdgeStyle;rounded=0;orthogonalLoop=1;jettySize=auto;html=1;exitX=0.5;exitY=0;exitDx=0;exitDy=0;entryX=0.5;entryY=1;entryDx=0;entryDy=0;curved=1;" parent="1" source="YvmfC7UfU6zEBnSFnw1T-78" target="YvmfC7UfU6zEBnSFnw1T-70" edge="1">
          <mxGeometry relative="1" as="geometry">
            <mxPoint x="3010" y="3160" as="targetPoint" />
          </mxGeometry>
        </mxCell>
        <mxCell id="YvmfC7UfU6zEBnSFnw1T-78" value="«Module»&lt;br&gt;Recommendations&lt;br&gt;Expander" style="rounded=0;whiteSpace=wrap;html=1;fillColor=#dae8fc;strokeColor=#6c8ebf;" parent="1" vertex="1">
          <mxGeometry x="2920" y="3340" width="120" height="60" as="geometry" />
        </mxCell>
        <mxCell id="YvmfC7UfU6zEBnSFnw1T-80" style="edgeStyle=orthogonalEdgeStyle;rounded=0;orthogonalLoop=1;jettySize=auto;html=1;exitX=1;exitY=0.5;exitDx=0;exitDy=0;entryX=0.5;entryY=1;entryDx=0;entryDy=0;dashed=1;elbow=vertical;curved=1;" parent="1" source="YvmfC7UfU6zEBnSFnw1T-8" target="YvmfC7UfU6zEBnSFnw1T-10" edge="1">
          <mxGeometry relative="1" as="geometry">
            <mxPoint x="1650" y="3380" as="sourcePoint" />
            <mxPoint x="1580" y="3380" as="targetPoint" />
          </mxGeometry>
        </mxCell>
        <mxCell id="YvmfC7UfU6zEBnSFnw1T-86" style="edgeStyle=orthogonalEdgeStyle;rounded=0;orthogonalLoop=1;jettySize=auto;html=1;exitX=0.5;exitY=0;exitDx=0;exitDy=0;entryX=0.5;entryY=1;entryDx=0;entryDy=0;curved=1;" parent="1" source="YvmfC7UfU6zEBnSFnw1T-87" target="YvmfC7UfU6zEBnSFnw1T-90" edge="1">
          <mxGeometry relative="1" as="geometry" />
        </mxCell>
        <mxCell id="YvmfC7UfU6zEBnSFnw1T-87" value="«Module»&lt;br&gt;LandingPage" style="rounded=0;whiteSpace=wrap;html=1;fillColor=#d5e8d4;strokeColor=#82b366;" parent="1" vertex="1">
          <mxGeometry x="1060" y="3460" width="120" height="60" as="geometry" />
        </mxCell>
        <mxCell id="YvmfC7UfU6zEBnSFnw1T-98" style="edgeStyle=orthogonalEdgeStyle;rounded=0;orthogonalLoop=1;jettySize=auto;html=1;entryX=0.5;entryY=1;entryDx=0;entryDy=0;curved=1;exitX=0.5;exitY=0;exitDx=0;exitDy=0;" parent="1" source="YvmfC7UfU6zEBnSFnw1T-90" target="YvmfC7UfU6zEBnSFnw1T-94" edge="1">
          <mxGeometry relative="1" as="geometry" />
        </mxCell>
        <mxCell id="YvmfC7UfU6zEBnSFnw1T-99" style="edgeStyle=orthogonalEdgeStyle;rounded=0;orthogonalLoop=1;jettySize=auto;html=1;exitX=0.5;exitY=0;exitDx=0;exitDy=0;curved=1;" parent="1" source="YvmfC7UfU6zEBnSFnw1T-90" target="YvmfC7UfU6zEBnSFnw1T-92" edge="1">
          <mxGeometry relative="1" as="geometry" />
        </mxCell>
        <mxCell id="YvmfC7UfU6zEBnSFnw1T-90" value="«Module»&lt;br&gt;Recommendations" style="rounded=0;whiteSpace=wrap;html=1;fillColor=#dae8fc;strokeColor=#6c8ebf;" parent="1" vertex="1">
          <mxGeometry x="1060" y="3340" width="120" height="60" as="geometry" />
        </mxCell>
        <mxCell id="YvmfC7UfU6zEBnSFnw1T-92" value="«Module»&lt;br&gt;Horses" style="rounded=0;whiteSpace=wrap;html=1;fillColor=#e1d5e7;strokeColor=#9673a6;" parent="1" vertex="1">
          <mxGeometry x="1180" y="3220" width="120" height="60" as="geometry" />
        </mxCell>
        <mxCell id="YvmfC7UfU6zEBnSFnw1T-94" value="«Module»&lt;br&gt;Events" style="rounded=0;whiteSpace=wrap;html=1;fillColor=#e1d5e7;strokeColor=#9673a6;" parent="1" vertex="1">
          <mxGeometry x="940" y="3220" width="120" height="60" as="geometry" />
        </mxCell>
        <mxCell id="YvmfC7UfU6zEBnSFnw1T-125" value="Stability" parent="0" />
        <mxCell id="eekvqRZFioCIxLSmAg_j-9" value="1 / (1 + 1) = 0.5" style="text;html=1;align=center;verticalAlign=middle;whiteSpace=wrap;rounded=0;" parent="YvmfC7UfU6zEBnSFnw1T-125" vertex="1">
          <mxGeometry x="1600" y="3400" width="200" height="60" as="geometry" />
        </mxCell>
        <mxCell id="eekvqRZFioCIxLSmAg_j-10" value="2 / (2 + 1) =&amp;nbsp;0,66" style="text;html=1;align=center;verticalAlign=middle;whiteSpace=wrap;rounded=0;" parent="YvmfC7UfU6zEBnSFnw1T-125" vertex="1">
          <mxGeometry x="1130" y="3340" width="200" height="60" as="geometry" />
        </mxCell>
        <mxCell id="eekvqRZFioCIxLSmAg_j-11" value="0 / (0 + 2) = 0" style="text;html=1;align=center;verticalAlign=middle;whiteSpace=wrap;rounded=0;" parent="YvmfC7UfU6zEBnSFnw1T-125" vertex="1">
          <mxGeometry x="2240" y="3090" width="200" height="60" as="geometry" />
        </mxCell>
        <mxCell id="eekvqRZFioCIxLSmAg_j-12" value="0 / (0 + 1) = 0" style="text;html=1;align=center;verticalAlign=middle;whiteSpace=wrap;rounded=0;" parent="YvmfC7UfU6zEBnSFnw1T-125" vertex="1">
          <mxGeometry x="2990" y="3140" width="200" height="60" as="geometry" />
        </mxCell>
        <mxCell id="eekvqRZFioCIxLSmAg_j-13" value="3 / (3 + 1) =&amp;nbsp;0,75" style="text;html=1;align=center;verticalAlign=middle;whiteSpace=wrap;rounded=0;" parent="YvmfC7UfU6zEBnSFnw1T-125" vertex="1">
          <mxGeometry x="3000" y="3340" width="200" height="60" as="geometry" />
        </mxCell>
        <mxCell id="eekvqRZFioCIxLSmAg_j-14" value="2 / (2 + 1) =&amp;nbsp;0,66" style="text;html=1;align=center;verticalAlign=middle;whiteSpace=wrap;rounded=0;" parent="YvmfC7UfU6zEBnSFnw1T-125" vertex="1">
          <mxGeometry x="2080" y="3385" width="200" height="60" as="geometry" />
        </mxCell>
        <mxCell id="eekvqRZFioCIxLSmAg_j-15" value="2 / (2 + 1) =&amp;nbsp;0,66" style="text;html=1;align=center;verticalAlign=middle;whiteSpace=wrap;rounded=0;" parent="YvmfC7UfU6zEBnSFnw1T-125" vertex="1">
          <mxGeometry x="2400" y="3385" width="200" height="60" as="geometry" />
        </mxCell>
        <mxCell id="eekvqRZFioCIxLSmAg_j-16" value="2 / (2 + 0) = 1" style="text;html=1;align=center;verticalAlign=middle;whiteSpace=wrap;rounded=0;" parent="YvmfC7UfU6zEBnSFnw1T-125" vertex="1">
          <mxGeometry x="2240" y="3510" width="200" height="60" as="geometry" />
        </mxCell>
        <mxCell id="eekvqRZFioCIxLSmAg_j-17" value="1 / (1 + 0) = 1" style="text;html=1;align=center;verticalAlign=middle;whiteSpace=wrap;rounded=0;" parent="YvmfC7UfU6zEBnSFnw1T-125" vertex="1">
          <mxGeometry x="1600" y="3510" width="200" height="60" as="geometry" />
        </mxCell>
        <mxCell id="eekvqRZFioCIxLSmAg_j-18" value="1 / (1 + 0) = 1" style="text;html=1;align=center;verticalAlign=middle;whiteSpace=wrap;rounded=0;" parent="YvmfC7UfU6zEBnSFnw1T-125" vertex="1">
          <mxGeometry x="2880" y="3510" width="200" height="60" as="geometry" />
        </mxCell>
        <mxCell id="eekvqRZFioCIxLSmAg_j-19" value="0 / (0 + 3) = 0" style="text;html=1;align=center;verticalAlign=middle;whiteSpace=wrap;rounded=0;" parent="YvmfC7UfU6zEBnSFnw1T-125" vertex="1">
          <mxGeometry x="1600" y="3090" width="200" height="60" as="geometry" />
        </mxCell>
        <mxCell id="FckfLefsYxEibFGllz2v-1" value="1 / (1 + 0) = 1" style="text;html=1;align=center;verticalAlign=middle;whiteSpace=wrap;rounded=0;" parent="YvmfC7UfU6zEBnSFnw1T-125" vertex="1">
          <mxGeometry x="1000" y="3510" width="200" height="60" as="geometry" />
        </mxCell>
        <mxCell id="eekvqRZFioCIxLSmAg_j-1" value="Fire" parent="0" />
        <mxCell id="eekvqRZFioCIxLSmAg_j-2" value="🔥" style="text;html=1;align=center;verticalAlign=middle;whiteSpace=wrap;rounded=0;fontSize=41;" parent="eekvqRZFioCIxLSmAg_j-1" vertex="1">
          <mxGeometry x="1010" y="3350" width="80" height="90" as="geometry" />
        </mxCell>
        <mxCell id="eekvqRZFioCIxLSmAg_j-3" value="🔥" style="text;html=1;align=center;verticalAlign=middle;whiteSpace=wrap;rounded=0;fontSize=41;" parent="eekvqRZFioCIxLSmAg_j-1" vertex="1">
          <mxGeometry x="2880" y="3350" width="80" height="90" as="geometry" />
        </mxCell>
        <mxCell id="eekvqRZFioCIxLSmAg_j-4" value="Pros and Cons" parent="0" />
        <mxCell id="eekvqRZFioCIxLSmAg_j-5" value="&lt;h1 style=&quot;margin-top: 0px;&quot;&gt;Pros&lt;/h1&gt;&lt;p&gt;&lt;/p&gt;&lt;ul&gt;&lt;li&gt;Simple hirarchy.&lt;/li&gt;&lt;li&gt;Small number of modules.&lt;/li&gt;&lt;/ul&gt;&lt;p&gt;&lt;/p&gt;&lt;h1 style=&quot;margin-top: 0px;&quot;&gt;Cons&lt;/h1&gt;&lt;p&gt;&lt;/p&gt;&lt;ul&gt;&lt;li&gt;Recommendations becomes a very unstable module.&lt;/li&gt;&lt;li&gt;Recommendations becomes aware of a lot different concepts.&lt;/li&gt;&lt;li&gt;Direct coupling.&lt;/li&gt;&lt;li&gt;Can&#39;t be easily split into different applications / code bases because of the tight&amp;nbsp; and direct coupling.&lt;/li&gt;&lt;/ul&gt;&lt;p&gt;&lt;/p&gt;" style="text;html=1;whiteSpace=wrap;overflow=hidden;rounded=0;" parent="eekvqRZFioCIxLSmAg_j-4" vertex="1">
          <mxGeometry x="880" y="3600" width="480" height="240" as="geometry" />
        </mxCell>
        <mxCell id="eekvqRZFioCIxLSmAg_j-6" value="&lt;h1 style=&quot;margin-top: 0px;&quot;&gt;Pros&lt;/h1&gt;&lt;p&gt;&lt;/p&gt;&lt;ul&gt;&lt;li&gt;Simple hirarchy.&lt;/li&gt;&lt;li&gt;Decoupled extension by inversion of control.&lt;/li&gt;&lt;/ul&gt;&lt;p&gt;&lt;/p&gt;&lt;h1 style=&quot;margin-top: 0px;&quot;&gt;Cons&lt;/h1&gt;&lt;p&gt;&lt;/p&gt;&lt;ul&gt;&lt;li&gt;Recommendations can&#39;t be extracted into a separate deployment unit / service without taking all the dependent modules with it. That means you can&#39;t build a &quot;microservice&quot; from it because it is very likely a shared DB required.&lt;/li&gt;&lt;/ul&gt;&lt;p&gt;&lt;/p&gt;" style="text;html=1;whiteSpace=wrap;overflow=hidden;rounded=0;" parent="eekvqRZFioCIxLSmAg_j-4" vertex="1">
          <mxGeometry x="1400" y="3600" width="480" height="240" as="geometry" />
        </mxCell>
        <mxCell id="eekvqRZFioCIxLSmAg_j-7" value="&lt;h1 style=&quot;margin-top: 0px;&quot;&gt;Pros&lt;/h1&gt;&lt;p&gt;&lt;/p&gt;&lt;ul&gt;&lt;li&gt;Recommendations stays very decoupled and low level.&lt;/li&gt;&lt;/ul&gt;&lt;p&gt;&lt;/p&gt;&lt;h1 style=&quot;margin-top: 0px;&quot;&gt;Cons&lt;/h1&gt;&lt;p&gt;&lt;/p&gt;&lt;ul&gt;&lt;li&gt;Fetching mixed types might become tricky or at least requires multiple calls to multiple modules.&lt;/li&gt;&lt;/ul&gt;&lt;p&gt;&lt;/p&gt;" style="text;html=1;whiteSpace=wrap;overflow=hidden;rounded=0;" parent="eekvqRZFioCIxLSmAg_j-4" vertex="1">
          <mxGeometry x="2040" y="3600" width="480" height="240" as="geometry" />
        </mxCell>
        <mxCell id="eekvqRZFioCIxLSmAg_j-8" value="&lt;h1 style=&quot;margin-top: 0px;&quot;&gt;Pros&lt;/h1&gt;&lt;p&gt;&lt;/p&gt;&lt;ul&gt;&lt;li&gt;Recommendations stays very decoupled and low level.&lt;/li&gt;&lt;li&gt;Simple hirarchy.&lt;/li&gt;&lt;li&gt;Small number of modules.&lt;/li&gt;&lt;/ul&gt;&lt;p&gt;&lt;/p&gt;&lt;h1 style=&quot;margin-top: 0px;&quot;&gt;Cons&lt;/h1&gt;&lt;p&gt;&lt;/p&gt;&lt;ul&gt;&lt;li&gt;The expander module becomes a &quot;god&quot; module, that needs to know ALL other types. Which also prevents us from separating&amp;nbsp;&lt;/li&gt;&lt;/ul&gt;&lt;p&gt;&lt;/p&gt;" style="text;html=1;whiteSpace=wrap;overflow=hidden;rounded=0;" parent="eekvqRZFioCIxLSmAg_j-4" vertex="1">
          <mxGeometry x="2680" y="3600" width="480" height="200" as="geometry" />
        </mxCell>
        <mxCell id="eekvqRZFioCIxLSmAg_j-20" value="Stability Calculation" parent="0" />
        <mxCell id="eekvqRZFioCIxLSmAg_j-21" value="&lt;h1 style=&quot;margin-top: 0px;&quot;&gt;Stability Calculation&lt;/h1&gt;&lt;p&gt;The formula to calculate the &lt;strong data-end=&quot;48&quot; data-start=&quot;29&quot;&gt;Instability (I)&lt;/strong&gt; of a class or module comes from &lt;strong data-end=&quot;103&quot; data-start=&quot;81&quot;&gt;Robert C. Martin&#39;s&lt;/strong&gt; software metrics (also known as &lt;strong data-end=&quot;155&quot; data-start=&quot;136&quot;&gt;package metrics&lt;/strong&gt;), particularly from his work on &lt;strong data-end=&quot;227&quot; data-start=&quot;188&quot;&gt;Stable Dependencies Principle (SDP)&lt;/strong&gt;.&lt;br&gt;&lt;br&gt;&lt;/p&gt;&lt;p&gt;&lt;b&gt;I = E / (A + E)&lt;/b&gt;&lt;/p&gt;&lt;p&gt;&lt;b&gt;&lt;br&gt;&lt;/b&gt;&lt;/p&gt;&lt;ul data-end=&quot;595&quot; data-start=&quot;290&quot;&gt;&lt;li data-end=&quot;331&quot; data-start=&quot;290&quot;&gt;&lt;p data-end=&quot;331&quot; data-start=&quot;292&quot;&gt;&lt;strong data-end=&quot;297&quot; data-start=&quot;292&quot;&gt;I&lt;/strong&gt;: Instability (ranges from 0 to 1)&lt;/p&gt;&lt;/li&gt;&lt;li data-end=&quot;463&quot; data-start=&quot;332&quot;&gt;&lt;p data-end=&quot;463&quot; data-start=&quot;334&quot;&gt;&lt;strong data-end=&quot;339&quot; data-start=&quot;334&quot;&gt;A&lt;/strong&gt;: Afferent Couplings — number of classes outside the module that depend on classes inside the module (incoming dependencies)&lt;/p&gt;&lt;/li&gt;&lt;li data-end=&quot;595&quot; data-start=&quot;464&quot;&gt;&lt;p data-end=&quot;595&quot; data-start=&quot;466&quot;&gt;&lt;strong data-end=&quot;471&quot; data-start=&quot;466&quot;&gt;E&lt;/strong&gt;: Efferent Couplings — number of classes inside the module that depend on classes outside the module (outgoing dependencies)&lt;/p&gt;&lt;/li&gt;&lt;/ul&gt;&lt;h3 data-end=&quot;624&quot; data-start=&quot;602&quot;&gt;Interpretation:&lt;/h3&gt;&lt;ul data-end=&quot;790&quot; data-start=&quot;625&quot;&gt;&lt;li data-end=&quot;707&quot; data-start=&quot;625&quot;&gt;&lt;p data-end=&quot;707&quot; data-start=&quot;627&quot;&gt;&lt;strong data-end=&quot;636&quot; data-start=&quot;627&quot;&gt;I = 0&lt;/strong&gt; → &lt;strong data-end=&quot;660&quot; data-start=&quot;639&quot;&gt;Completely stable&lt;/strong&gt; (many depend on it, but it depends on nothing)&lt;/p&gt;&lt;/li&gt;&lt;li data-end=&quot;790&quot; data-start=&quot;708&quot;&gt;&lt;p data-end=&quot;790&quot; data-start=&quot;710&quot;&gt;&lt;strong data-end=&quot;719&quot; data-start=&quot;710&quot;&gt;I = 1&lt;/strong&gt; → &lt;strong data-end=&quot;745&quot; data-start=&quot;722&quot;&gt;Completely unstable&lt;/strong&gt; (depends on many, but nothing depends on it)&lt;/p&gt;&lt;/li&gt;&lt;/ul&gt;" style="text;html=1;whiteSpace=wrap;overflow=hidden;rounded=0;" parent="eekvqRZFioCIxLSmAg_j-20" vertex="1">
          <mxGeometry x="400" y="3000" width="420" height="405" as="geometry" />
        </mxCell>
        <mxCell id="FckfLefsYxEibFGllz2v-2" value="Frames" parent="0" />
        <mxCell id="FckfLefsYxEibFGllz2v-3" style="rounded=0;orthogonalLoop=1;jettySize=auto;html=1;entryX=0;entryY=0.5;entryDx=0;entryDy=0;fillColor=#ffe6cc;strokeColor=#d79b00;strokeWidth=2;" parent="FckfLefsYxEibFGllz2v-2" source="FckfLefsYxEibFGllz2v-4" edge="1">
          <mxGeometry relative="1" as="geometry">
            <mxPoint x="2920" y="3370" as="targetPoint" />
          </mxGeometry>
        </mxCell>
        <mxCell id="FckfLefsYxEibFGllz2v-4" value="This module can be considered instable because of the high number of dependencies!" style="shape=note;strokeWidth=2;fontSize=12;size=20;whiteSpace=wrap;html=1;fillColor=#fff2cc;strokeColor=#d6b656;fontColor=#666600;perimeterSpacing=5;align=left;spacing=5;" parent="FckfLefsYxEibFGllz2v-2" vertex="1">
          <mxGeometry x="2720" y="3360" width="140" height="85" as="geometry" />
        </mxCell>
        <mxCell id="FckfLefsYxEibFGllz2v-5" value="Direct Coupling" style="shape=umlFrame;whiteSpace=wrap;html=1;pointerEvents=0;strokeWidth=2;width=160;height=40;fontStyle=1" parent="FckfLefsYxEibFGllz2v-2" vertex="1">
          <mxGeometry x="880" y="3140" width="480" height="420" as="geometry" />
        </mxCell>
        <mxCell id="FckfLefsYxEibFGllz2v-6" value="Plugins / Extension Points" style="shape=umlFrame;whiteSpace=wrap;html=1;pointerEvents=0;strokeWidth=2;width=180;height=40;fontStyle=1" parent="FckfLefsYxEibFGllz2v-2" vertex="1">
          <mxGeometry x="1400" y="3060" width="600" height="500" as="geometry" />
        </mxCell>
        <mxCell id="FckfLefsYxEibFGllz2v-7" value="One Connector&lt;br&gt;per Type" style="shape=umlFrame;whiteSpace=wrap;html=1;pointerEvents=0;strokeWidth=2;width=160;height=40;fontStyle=1" parent="FckfLefsYxEibFGllz2v-2" vertex="1">
          <mxGeometry x="2040" y="3060" width="600" height="500" as="geometry" />
        </mxCell>
        <mxCell id="FckfLefsYxEibFGllz2v-8" value="One Connector" style="shape=umlFrame;whiteSpace=wrap;html=1;pointerEvents=0;strokeWidth=2;width=160;height=40;fontStyle=1" parent="FckfLefsYxEibFGllz2v-2" vertex="1">
          <mxGeometry x="2680" y="3080" width="560" height="480" as="geometry" />
        </mxCell>
        <mxCell id="FckfLefsYxEibFGllz2v-9" value="One Generic Connector with many dependencies" style="text;html=1;align=center;verticalAlign=middle;whiteSpace=wrap;rounded=0;fontStyle=1;fontSize=15;" parent="FckfLefsYxEibFGllz2v-2" vertex="1">
          <mxGeometry x="2800" y="3020" width="320" height="50" as="geometry" />
        </mxCell>
        <mxCell id="FckfLefsYxEibFGllz2v-10" value="No connector, other modules provide &quot;plugin&quot; implementations based on an Interface" style="text;html=1;align=center;verticalAlign=middle;whiteSpace=wrap;rounded=0;fontStyle=1;fontSize=15;" parent="FckfLefsYxEibFGllz2v-2" vertex="1">
          <mxGeometry x="1540" y="2990" width="320" height="50" as="geometry" />
        </mxCell>
      </root>
    </mxGraphModel>
  </diagram>
</mxfile>
